<svg xmlns="http://www.w3.org/2000/svg" xmlns:xlink="http://www.w3.org/1999/xlink" width="500" zoomAndPan="magnify" viewBox="0 0 375 374.999991" height="500" preserveAspectRatio="xMidYMid meet" version="1.0"><defs><g/><clipPath id="6a73379a01"><path d="M 65.832031 122.910156 L 122.082031 122.910156 L 122.082031 244.601562 L 65.832031 244.601562 Z M 65.832031 122.910156 " clip-rule="nonzero"/></clipPath></defs><g fill="#2b2b2b" fill-opacity="1"><g transform="translate(126.704745, 242.450051)"><g><path d="M 15.203125 0 L 15.203125 -94.203125 L 1.359375 -94.203125 L 1.359375 -116.609375 L 52.40625 -116.609375 L 52.40625 -94.203125 L 38.546875 -94.203125 L 38.546875 0 Z M 15.203125 0 "/></g></g></g><g fill="#2b2b2b" fill-opacity="1"><g transform="translate(180.460868, 242.450051)"><g><path d="M 5.15625 -116.609375 L 41 -116.609375 C 46.695312 -116.609375 51.109375 -115.316406 54.234375 -112.734375 C 57.359375 -110.160156 59.460938 -106.539062 60.546875 -101.875 C 61.628906 -97.21875 62.171875 -91.269531 62.171875 -84.03125 C 62.171875 -77.425781 61.3125 -72.265625 59.59375 -68.546875 C 57.875 -64.835938 54.890625 -62.257812 50.640625 -60.8125 C 54.160156 -60.09375 56.710938 -58.328125 58.296875 -55.515625 C 59.890625 -52.710938 60.6875 -48.914062 60.6875 -44.125 L 60.40625 0 L 37.609375 0 L 37.609375 -45.609375 C 37.609375 -48.867188 36.972656 -50.953125 35.703125 -51.859375 C 34.429688 -52.765625 32.125 -53.21875 28.78125 -53.21875 L 28.78125 0 L 5.15625 0 Z M 34.484375 -73.4375 C 37.742188 -73.4375 39.375 -76.96875 39.375 -84.03125 C 39.375 -87.101562 39.234375 -89.410156 38.953125 -90.953125 C 38.679688 -92.492188 38.179688 -93.554688 37.453125 -94.140625 C 36.734375 -94.734375 35.695312 -95.03125 34.34375 -95.03125 L 28.921875 -95.03125 L 28.921875 -73.4375 Z M 34.484375 -73.4375 "/></g></g></g><g fill="#2b2b2b" fill-opacity="1"><g transform="translate(245.212575, 242.450051)"><g><path d="M 5.15625 0 L 5.15625 -116.609375 L 28.234375 -116.609375 L 28.234375 -69.90625 L 39.09375 -116.609375 L 62.578125 -116.609375 L 49.546875 -63.265625 L 65.296875 0 L 41.125 0 L 28.375 -56.46875 L 28.375 0 Z M 5.15625 0 "/></g></g></g><g clip-path="url(#6a73379a01)"><path fill="#2b2b2b" d="M 65.832031 122.910156 L 122.082031 122.910156 L 122.082031 244.640625 L 65.832031 244.640625 Z M 65.832031 122.910156 " fill-opacity="1" fill-rule="nonzero"/></g><g fill="#e6e6dd" fill-opacity="1"><g transform="translate(111.582441, 230.876074)"><g><path d="M 0.34375 -10.625 C 0.34375 -7.195312 -0.5 -4.722656 -2.1875 -3.203125 C -3.882812 -1.679688 -6.625 -0.921875 -10.40625 -0.921875 L -14.09375 -0.921875 L -14.09375 -8.34375 L -9.390625 -8.34375 C -7.515625 -8.34375 -6.578125 -8.941406 -6.578125 -10.140625 C -6.578125 -10.816406 -6.773438 -11.285156 -7.171875 -11.546875 C -7.566406 -11.804688 -8.234375 -11.9375 -9.171875 -11.9375 C -10.398438 -11.9375 -11.414062 -11.789062 -12.21875 -11.5 C -13.03125 -11.207031 -13.707031 -10.832031 -14.25 -10.375 C -14.789062 -9.925781 -15.628906 -9.117188 -16.765625 -7.953125 L -20.015625 -4.703125 C -22.472656 -2.179688 -25.195312 -0.921875 -28.1875 -0.921875 C -31.40625 -0.921875 -33.851562 -1.660156 -35.53125 -3.140625 C -37.21875 -4.617188 -38.0625 -6.773438 -38.0625 -9.609375 C -38.0625 -13.003906 -37.160156 -15.445312 -35.359375 -16.9375 C -33.566406 -18.4375 -30.753906 -19.1875 -26.921875 -19.1875 L -26.921875 -11.5 L -29.5 -11.453125 C -30 -11.453125 -30.394531 -11.3125 -30.6875 -11.03125 C -30.976562 -10.757812 -31.125 -10.375 -31.125 -9.875 C -31.125 -9.289062 -30.960938 -8.851562 -30.640625 -8.5625 C -30.316406 -8.269531 -29.878906 -8.125 -29.328125 -8.125 C -28.097656 -8.125 -26.828125 -8.828125 -25.515625 -10.234375 L -21.296875 -14.625 C -20.296875 -15.644531 -19.347656 -16.488281 -18.453125 -17.15625 C -17.566406 -17.832031 -16.515625 -18.375 -15.296875 -18.78125 C -14.085938 -19.195312 -12.644531 -19.40625 -10.96875 -19.40625 C -7.257812 -19.40625 -4.445312 -18.722656 -2.53125 -17.359375 C -0.613281 -16.003906 0.34375 -13.757812 0.34375 -10.625 Z M 0.34375 -10.625 "/></g></g></g><g fill="#e6e6dd" fill-opacity="1"><g transform="translate(111.582441, 210.638882)"><g><path d="M 0 -4.921875 L -30.46875 -4.921875 L -30.46875 -0.4375 L -37.71875 -0.4375 L -37.71875 -16.953125 L -30.46875 -16.953125 L -30.46875 -12.46875 L 0 -12.46875 Z M 0 -4.921875 "/></g></g></g><g fill="#e6e6dd" fill-opacity="1"><g transform="translate(111.582441, 193.25509)"><g><path d="M 0 -0.65625 L -37.71875 -4.296875 L -37.71875 -17.078125 L 0 -20.6875 L 0 -13.515625 L -6.109375 -13 L -6.109375 -8.4375 L 0 -7.984375 Z M -12.125 -9 L -12.125 -12.421875 L -31.3125 -10.75 L -31.3125 -10.40625 Z M -12.125 -9 "/></g></g></g><g fill="#e6e6dd" fill-opacity="1"><g transform="translate(111.582441, 171.964331)"><g><path d="M 0 -1.671875 L -37.71875 -1.671875 L -37.71875 -16.765625 L -30.390625 -16.765625 L -30.390625 -9.265625 L -24.375 -9.265625 L -24.375 -16.375 L -17.125 -16.375 L -17.125 -9.265625 L 0 -9.265625 Z M 0 -1.671875 "/></g></g></g><g fill="#e6e6dd" fill-opacity="1"><g transform="translate(111.582441, 154.44884)"><g><path d="M 0 -1.671875 L -37.71875 -1.671875 L -37.71875 -16.765625 L -30.390625 -16.765625 L -30.390625 -9.265625 L -24.375 -9.265625 L -24.375 -16.375 L -17.125 -16.375 L -17.125 -9.265625 L 0 -9.265625 Z M 0 -1.671875 "/></g></g></g></svg>